<?xml version="1.0" encoding="utf-8" ?>
<svg xmlns="http://www.w3.org/2000/svg" xmlns:xlink="http://www.w3.org/1999/xlink" width="1024" height="1024">
	<path fill="#BC9BFE" transform="scale(1.6 1.6)" d="M274.99 444.014L311.37 444.041C317.829 444.07 318.303 449.21 318.407 455.215C318.657 469.704 310.744 469.042 299.376 469.053L277.734 469.038L257.233 469.026C253.405 469.019 249.226 469.306 245.45 468.694L245 468.618C237.067 467.494 232.432 459.861 235.159 452.374C238.729 442.569 250.546 444.044 258.862 444.026L274.99 444.014Z"/>
	<path fill="#BC9BFE" transform="scale(1.6 1.6)" d="M102.55 404.184C106.689 404.491 110.751 405.623 114.898 405.855L288.411 405.99C297.219 405.991 306.442 406.591 315.189 405.79L315.685 405.743C315.201 408.745 315.37 412.092 315.353 415.136L315.155 433.042L127.201 434.156C109.468 434.03 102.327 420.278 102.55 404.184Z"/>
	<defs>
		<linearGradient id="gradient_0" gradientUnits="userSpaceOnUse" x1="351.24722" y1="427.13254" x2="563.1308" y2="426.92752">
			<stop offset="0" stop-color="#AFB4FF"/>
			<stop offset="1" stop-color="#A0E7FB"/>
		</linearGradient>
	</defs>
	<path fill="url(#gradient_0)" transform="scale(1.6 1.6)" d="M452.352 320.436L452.502 320.431C459.522 319.948 467.155 320.733 474.049 321.91C530.585 331.561 569.234 381.04 563.525 438.799C558.473 489.915 515.231 531.919 463.516 533.776C458.658 533.908 453.572 534.102 448.733 533.723C404.491 530.259 365.967 498.058 354.565 455.204C337.012 389.232 382.71 324.384 452.352 320.436ZM450.93 352.63C410.209 355.94 379.893 394.296 383.559 434.48C387.344 475.968 423.407 503.388 463.822 502.14C531.052 494.877 554.181 409.426 504.062 369.397C487.142 355.884 471.855 351.658 450.93 352.63Z"/>
	<path fill="#A9D9FE" transform="scale(1.6 1.6)" d="M454.658 375.356L458.281 375.298C468.186 375.897 470.834 385.644 470.879 393.75L470.903 403.748C470.919 413.599 471.349 423.652 470.645 433.477C474.485 430.698 481.47 428.586 485.798 430.989C500.954 439.404 487.143 452.804 480.287 460.543C475.064 466.438 468.866 476.258 460.625 478.14L460.156 478.242C458.365 478.659 456.705 478.72 454.877 478.757L453.281 478.469C444.855 477.02 440.738 469.555 435.56 463.593C431.583 459.013 426.998 454.719 423.452 449.805C417.711 441.85 419.631 431.241 429.626 429.619C434.402 428.845 440.024 433.538 443.715 436.202C442.76 429.044 443.375 421.115 443.377 413.881C443.379 406.813 441.722 389.328 444.974 383.227L445.734 381.811C447.745 378.213 450.835 376.462 454.658 375.356Z"/>
	<defs>
		<linearGradient id="gradient_1" gradientUnits="userSpaceOnUse" x1="89.310318" y1="212.27777" x2="459.11002" y2="318.53653">
			<stop offset="0" stop-color="#C18AFF"/>
			<stop offset="1" stop-color="#9CF5F9"/>
		</linearGradient>
	</defs>
	<path fill="url(#gradient_1)" transform="scale(1.6 1.6)" d="M251.365 143.876L446.661 144.021C456.754 144.598 466.891 154.157 468.827 164.011C470.535 172.707 470.228 181.545 470.264 190.361L470.062 284.41C403.904 280.047 347.517 316.025 322.905 376.517L318.129 389.719C317.494 392.535 307.379 391.6 305.167 391.605L147.559 391.675C131.708 391.689 108.311 397.747 102.824 377.344L102.657 376.748C101.691 372.855 101.936 368.641 101.931 364.653L101.898 185.175C101.906 167.603 100.799 150.102 121.406 144.669C126.656 143.285 133.004 143.902 138.429 143.899L251.365 143.876Z"/>
</svg>
